<svg id="Vrstva_1" xmlns="http://www.w3.org/2000/svg" viewBox="0 0 45.4 45.4"><style>.st0{fill:#324164;} .st1{fill:#FFFFFF;}</style><path class="st0" d="M22.7 45.4c12.5 0 22.7-10.2 22.7-22.7S35.2 0 22.7 0 0 10.2 0 22.7s10.2 22.7 22.7 22.7"/><path class="st1" d="M19.6 33.1V12.3c-5.3 1.4-8.4 5.2-8.4 10.3 0 5.1 3.2 9.1 8.4 10.5m20.2-10.5c0 4.8-1.7 8.8-5.1 12-3.2 3.1-7.7 4.8-12.1 4.8-4.6 0-8.6-1.6-11.9-4.6-3.6-3.2-5.3-7.4-5.3-12.1C5.4 17 8.1 11.9 13 8.6c3-2 6.4-2.8 10.9-2.8h.9v27.4c5.5-1 9.1-5.3 9.1-10.7 0-3.9-2-7.2-5.3-9.1V6.9C36 10 39.8 15.5 39.8 22.6"/></svg>